<?xml version="1.0" encoding="UTF-8" standalone="no"?>
<!-- Generator: Adobe Illustrator 16.0.0, SVG Export Plug-In . SVG Version: 6.00 Build 0)  -->

<svg
   xmlns:dc="http://purl.org/dc/elements/1.1/"
   xmlns:cc="http://creativecommons.org/ns#"
   xmlns:rdf="http://www.w3.org/1999/02/22-rdf-syntax-ns#"
   xmlns:svg="http://www.w3.org/2000/svg"
   xmlns="http://www.w3.org/2000/svg"
   xmlns:xlink="http://www.w3.org/1999/xlink"
   xmlns:sodipodi="http://sodipodi.sourceforge.net/DTD/sodipodi-0.dtd"
   xmlns:inkscape="http://www.inkscape.org/namespaces/inkscape"
   version="1.1"
   id="Layer_1"
   x="0px"
   y="0px"
   width="149.567px"
   height="29.813px"
   viewBox="12.724 10.563 149.567 29.813"
   enable-background="new 12.724 10.563 149.567 29.813"
   xml:space="preserve"
   sodipodi:docname="merojob.svg"
   inkscape:version="0.92.4 5da689c313, 2019-01-14"><metadata
   id="metadata70"><rdf:RDF><cc:Work
       rdf:about=""><dc:format>image/svg+xml</dc:format><dc:type
         rdf:resource="http://purl.org/dc/dcmitype/StillImage" /></cc:Work></rdf:RDF></metadata><defs
   id="defs68" /><sodipodi:namedview
   pagecolor="#ffffff"
   bordercolor="#666666"
   borderopacity="1"
   objecttolerance="10"
   gridtolerance="10"
   guidetolerance="10"
   inkscape:pageopacity="0"
   inkscape:pageshadow="2"
   inkscape:window-width="1920"
   inkscape:window-height="1018"
   id="namedview66"
   showgrid="false"
   inkscape:zoom="2.4336919"
   inkscape:cx="74.783501"
   inkscape:cy="14.9065"
   inkscape:window-x="0"
   inkscape:window-y="27"
   inkscape:window-maximized="1"
   inkscape:current-layer="g63" />
<g
   id="g63">
	<g
   id="g18"
   transform="translate(-2,4)">
		<path
   d="m 92.229,28.882 c -0.868,0 -1.546,-0.669 -1.546,-1.524 v -5.55 c 0,-1.776 -0.804,-2.756 -2.257,-2.756 -1.479,0 -2.396,1.073 -2.396,2.802 v 5.504 c 0,0.854 -0.669,1.524 -1.523,1.524 -0.87,0 -1.547,-0.669 -1.547,-1.524 v -5.572 c 0,-1.739 -0.825,-2.734 -2.258,-2.734 -1.455,0 -2.395,1.098 -2.395,2.802 v 5.504 c 0,0.854 -0.679,1.524 -1.548,1.524 -0.855,0 -1.524,-0.669 -1.524,-1.524 V 17.89 c 0,-0.869 0.669,-1.547 1.524,-1.547 0.869,0 1.548,0.679 1.548,1.547 v 0.081 c 0.713,-0.877 1.753,-1.74 3.481,-1.74 1.603,0 2.872,0.697 3.605,1.971 1.068,-1.326 2.381,-1.971 4.004,-1.971 2.729,0 4.358,1.773 4.358,4.741 v 6.387 c -0.002,0.854 -0.671,1.523 -1.526,1.523"
   id="path2"
   inkscape:connector-curvature="0"
   style="fill:#002b5c" />
		<path
   d="m 109.694,28.882 c -0.855,0 -1.524,-0.669 -1.524,-1.524 V 17.89 c 0,-0.869 0.669,-1.547 1.524,-1.547 0.869,0 1.547,0.679 1.547,1.547 v 0.517 c 0.721,-1.271 1.81,-2.086 2.847,-2.086 0.909,0 1.522,0.611 1.522,1.524 0,0.757 -0.478,1.338 -1.221,1.476 -2.032,0.355 -3.148,1.955 -3.148,4.505 v 3.532 c 0.001,0.841 -0.695,1.524 -1.547,1.524"
   id="path4"
   inkscape:connector-curvature="0"
   style="fill:#002b5c" />
		<path
   d="m 121.833,29.041 c -3.646,0 -6.503,-2.788 -6.503,-6.347 v -0.048 c 0,-3.596 2.878,-6.416 6.552,-6.416 3.661,0 6.527,2.799 6.527,6.37 v 0.045 c 0,3.586 -2.888,6.396 -6.576,6.396 m 0,-10.081 c -1.988,0 -3.432,1.533 -3.432,3.64 v 0.045 c 0,2.055 1.526,3.664 3.48,3.664 2.002,0 3.457,-1.521 3.457,-3.616 v -0.048 c 0,-2.099 -1.507,-3.685 -3.505,-3.685"
   id="path6"
   inkscape:connector-curvature="0"
   style="fill:#002b5c" />
		<path
   d="m 129.289,32.461 c -1.043,-0.028 -1.662,-0.514 -1.662,-1.299 0,-0.737 0.537,-1.298 1.25,-1.298 0.035,0 0.09,0.011 0.136,0.02 l 0.034,0.005 c 0.559,0 0.845,-0.38 0.845,-1.127 V 17.89 c 0,-0.869 0.672,-1.547 1.526,-1.547 0.865,0 1.544,0.679 1.544,1.547 v 10.872 c 0,2.385 -1.23,3.699 -3.471,3.699 z m 2.128,-17.373 c -1.003,0 -1.729,-0.64 -1.729,-1.524 v -0.135 c 0,-0.884 0.709,-1.501 1.729,-1.501 1.017,0 1.728,0.618 1.728,1.501 v 0.135 c 0,0.884 -0.727,1.524 -1.728,1.524"
   id="path8"
   inkscape:connector-curvature="0"
   style="fill:#002b5c" />
		<path
   d="m 129.854,13.429 c 0,-0.815 0.679,-1.337 1.564,-1.337 0.883,0 1.562,0.522 1.562,1.337 v 0.135 c 0,0.816 -0.679,1.36 -1.562,1.36 -0.885,0 -1.564,-0.544 -1.564,-1.36 z"
   id="path10"
   inkscape:connector-curvature="0"
   style="fill:#002b5c" />
		<path
   d="m 140.931,29.041 c -3.65,0 -6.507,-2.788 -6.507,-6.347 v -0.048 c 0,-3.596 2.877,-6.416 6.551,-6.416 3.661,0 6.529,2.799 6.529,6.37 v 0.045 c 0,3.586 -2.89,6.396 -6.573,6.396 m 0,-10.081 c -1.992,0 -3.438,1.533 -3.438,3.64 v 0.045 c 0,2.055 1.528,3.664 3.482,3.664 2.002,0 3.457,-1.521 3.457,-3.616 v -0.048 c 0,-2.099 -1.506,-3.685 -3.501,-3.685"
   id="path12"
   inkscape:connector-curvature="0"
   style="fill:#002b5c" />
		<path
   d="m 155.811,29.018 c -1.577,0 -2.862,-0.591 -3.911,-1.804 v 0.145 c 0,0.841 -0.694,1.524 -1.545,1.524 -0.841,0 -1.524,-0.683 -1.524,-1.524 V 13.314 c 0,-0.853 0.668,-1.522 1.524,-1.522 0.867,0 1.545,0.67 1.545,1.522 v 4.833 c 1.049,-1.289 2.334,-1.917 3.911,-1.917 2.841,0 5.715,2.189 5.715,6.37 v 0.044 c 0,4.186 -2.874,6.374 -5.715,6.374 m -0.656,-10.079 c -1.896,0 -3.323,1.574 -3.323,3.661 v 0.044 c 0,2.09 1.427,3.666 3.323,3.666 1.917,0 3.256,-1.507 3.256,-3.666 V 22.6 c 0,-2.087 -1.401,-3.661 -3.256,-3.661"
   id="path14"
   inkscape:connector-curvature="0"
   style="fill:#002b5c" />
		<path
   d="m 99.209,22.695 c 0,0.591 0.442,1.068 0.984,1.068 h 3.524 0.436 1.211 c 0.821,0 1.459,-0.65 1.459,-1.479 0,-2.936 -2.051,-6.054 -5.85,-6.054 -3.426,0 -6.01,2.749 -6.01,6.394 v 0.045 c 0,3.69 2.655,6.371 6.304,6.371 1.748,0 3.191,-0.532 4.422,-1.633 0.264,-0.266 0.409,-0.605 0.409,-0.955 0,-0.716 -0.551,-1.275 -1.25,-1.275 -0.365,0 -0.58,0.108 -0.807,0.287 -0.822,0.675 -1.712,1.004 -2.729,1.004 -1.689,0 -2.92,-1.029 -3.248,-2.705 h 0.014 l -0.041,-0.198 c -0.066,-0.319 -0.098,-0.638 -0.098,-0.949 0,-0.392 0.045,-0.779 0.142,-1.155 0.342,-1.641 1.44,-2.659 2.869,-2.659 1.813,0 2.653,1.425 2.849,2.819 h -0.042 l 10e-4,0.006 h -3.565 c -0.542,0.001 -0.984,0.48 -0.984,1.068"
   id="path16"
   inkscape:connector-curvature="0"
   style="fill:#002b5c" />
	</g>
	<g
   id="g41">
		<g
   id="g39">
			<defs
   id="defs21">
				<path
   id="SVGID_1_"
   d="M41.604,13.589c-0.249,0.282-2.768,3.233-3.078,3.596L24.309,34.448      c-0.703,0.848-1.696,1.375-2.795,1.478c-1.096,0.103-2.17-0.229-3.019-0.933c-0.853-0.703-1.376-1.696-1.479-2.793      c-0.103-1.1,0.228-2.171,0.932-3.021l10.458-12.63c1.457-1.753,4.065-2,5.818-0.546c0.873,0.722,2.166,0.6,2.89-0.272      c0.724-0.874,0.6-2.168-0.273-2.89c-3.496-2.895-8.695-2.405-11.591,1.09L14.79,26.562c-1.403,1.693-2.065,3.833-1.858,6.021      c0.206,2.19,1.251,4.17,2.943,5.571c1.493,1.235,3.327,1.896,5.238,1.896c0.261,0,0.522-0.013,0.786-0.038      c2.189-0.206,4.167-1.251,5.574-2.948l14.196-17.237c1.121-1.311,2.846-3.33,3.021-3.527c0.978-1.116,2.178-1.334,3.019-1.323      c1.199,0.017,2.361,0.529,3.03,1.334l10.46,12.628c1.451,1.755,1.207,4.365-0.543,5.817c-0.852,0.703-1.923,1.036-3.022,0.932      c-1.1-0.104-2.09-0.628-2.797-1.478l-6.313-7.622l-2.747-3.535c-0.695-0.894-1.983-1.057-2.88-0.36      c-0.894,0.697-1.054,1.983-0.362,2.879l2.768,3.559l6.375,7.695c1.401,1.695,3.379,2.74,5.568,2.947      c2.188,0.206,4.328-0.453,6.024-1.856c3.495-2.897,3.985-8.098,1.09-11.595l-10.463-12.63c-1.434-1.73-3.726-2.786-6.129-2.817      c-0.057-0.002-0.114-0.002-0.169-0.002C45.257,10.869,43.135,11.844,41.604,13.589" />
			</defs>
			<clipPath
   id="SVGID_2_">
				<use
   xlink:href="#SVGID_1_"
   overflow="visible"
   id="use23" />
			</clipPath>
			
				<linearGradient
   id="SVGID_3_"
   gradientUnits="userSpaceOnUse"
   x1="-101.6685"
   y1="158.6758"
   x2="-101.2116"
   y2="158.6758"
   gradientTransform="matrix(0 63.8876 -63.8876 0 10177.4414 6506.2124)">
				<stop
   offset="0"
   style="stop-color:#00AFDB"
   id="stop26" />
				<stop
   offset="0.2193"
   style="stop-color:#008EBA"
   id="stop28" />
				<stop
   offset="0.4049"
   style="stop-color:#0075A2"
   id="stop30" />
				<stop
   offset="0.638"
   style="stop-color:#004C7D"
   id="stop32" />
				<stop
   offset="1"
   style="stop-color:#262262"
   id="stop34" />
			</linearGradient>
			<rect
   x="12.724"
   y="9.945"
   clip-path="url(#SVGID_2_)"
   fill="url(#SVGID_3_)"
   width="54.531"
   height="30.103"
   id="rect37" />
		</g>
	</g>
	
</g>
</svg>