<?xml version="1.0" encoding="utf-8"?>
<!-- Generator: Adobe Illustrator 22.0.0, SVG Export Plug-In . SVG Version: 6.00 Build 0)  -->
<svg version="1.1" id="Layer_1" xmlns="http://www.w3.org/2000/svg" xmlns:xlink="http://www.w3.org/1999/xlink" x="0px" y="0px"
	 viewBox="0 0 1122.4 260.3" style="enable-background:new 0 0 1122.4 260.3;" xml:space="preserve">
<style type="text/css">
	.st0{fill:#6268AB;}
	.st1{fill:#6268AB;stroke:#6268AB;stroke-width:10;stroke-miterlimit:10;}
</style>
<title>thuprai</title>
<path class="st0" d="M85.6,215.8c-11.5,0.1-22.8-2.2-33.4-6.7c-20.5-8.7-36.9-25-45.5-45.5C2.2,153-0.1,141.6,0,130.2V0l0,0
	c24.2,0,43.8,19.6,43.8,43.8l0,0l0,0v0.7h105.5v43.8H43.8v41.8c-0.1,23.1,18.5,41.9,41.5,42c17,0.1,32.3-10.1,38.8-25.7v-0.2
	c4.1-9.8,13.7-16.1,24.3-16.1h22.8c0.1,11.5-2.2,22.8-6.7,33.4c-8.7,20.5-25,36.9-45.6,45.5C108.4,213.6,97.1,215.8,85.6,215.8z"/>
<path class="st0" d="M304.1,113.9c-8.9-21.3-33.4-31.3-54.7-22.4c-15.6,6.5-25.7,21.8-25.6,38.7v85.6l0,0
	c-24.2,0-43.8-19.7-43.8-43.8l0,0v-172l0,0c24.2,0,43.8,19.6,43.8,43.8l0,0l0,0v11.7c6.3-3.5,12.9-6.1,19.9-8
	c7.1-2,14.5-2.9,21.9-2.9c11.5-0.1,22.8,2.2,33.4,6.7c20.5,8.7,36.9,25,45.5,45.5c4.5,10.6,6.8,21.9,6.7,33.4v85.6l0,0
	c-24.2,0-43.9-19.6-43.9-43.8c0,0,0,0,0-0.1l0,0v-41.8C307.4,124.6,306.3,119,304.1,113.9z"/>
<path class="st0" d="M361.1,44.5L361.1,44.5c24.2,0,43.9,19.6,43.9,43.8c0,0,0,0,0,0.1l0,0v41.8c-0.1,23.1,18.5,41.8,41.5,42
	c16.9,0.1,32.3-10.1,38.8-25.7c2.2-5.1,3.3-10.7,3.3-16.3V44.5l0,0c24.2,0,43.8,19.6,43.8,43.8l0,0l0,0v41.8
	c0.1,11.5-2.2,22.8-6.7,33.4c-8.7,20.5-25,36.8-45.6,45.5c-21.4,8.9-45.4,8.9-66.8,0c-20.5-8.7-36.9-25-45.5-45.5
	c-4.5-10.6-6.7-21.9-6.6-33.4L361.1,44.5z"/>
<path class="st0" d="M710.3,130.2c0.1,11.5-2.2,22.8-6.7,33.4c-8.7,20.5-25,36.9-45.5,45.5c-24.4,10.1-52,8.7-75.1-3.9v55.2l0,0
	c-24.2,0-43.8-19.6-43.8-43.8c0,0,0,0,0,0l0,0v-86.3c-0.1-11.5,2.2-22.9,6.7-33.4c8.7-20.5,25-36.9,45.5-45.5
	c21.4-8.9,45.4-8.9,66.8,0c20.5,8.7,36.9,25,45.5,45.5C708.2,107.3,710.5,118.7,710.3,130.2z M666.5,130.2c0-23.2-18.9-42-42.1-41.9
	c-23.2,0-42,18.9-41.9,42.1c0,23.2,18.9,42,42.1,41.9c16.9,0,32.2-10.2,38.7-25.8C665.4,141.3,666.5,135.8,666.5,130.2L666.5,130.2z
	"/>
<path class="st0" d="M850.1,130.2l-6.8-16.2c-9-21.3-33.5-31.2-54.7-22.3c-15.5,6.5-25.6,21.7-25.6,38.5v85.6l0,0
	c-24.2,0-43.8-19.6-43.8-43.8c0,0,0,0,0,0l0,0v-41.8c-0.1-11.5,2.2-22.8,6.7-33.4c8.7-20.5,25-36.9,45.6-45.5
	c21.4-8.9,45.4-8.9,66.8,0c20.5,8.7,36.9,25,45.6,45.5c0,0.1,0.1,0.2,0.1,0.3c6.7,15.7-5.2,33.1-22.2,33.1H850.1z"/>
<path class="st1" d="M976.8,49.9c10.7-0.1,21.3,2,31.2,6.2c19.1,8.1,34.3,23.3,42.4,42.4c4.2,9.9,6.3,20.5,6.2,31.2v80.2h-79.8
	c-10.7,0.1-21.2-2.1-31-6.2c-19.3-8.2-34.8-23.6-42.9-42.9c-8.3-19.9-8.3-42.3,0-62.2c4.1-9.5,9.9-18.1,17.3-25.3
	c7.4-7.3,16.1-13.1,25.7-17.1C955.6,52,966.2,49.9,976.8,49.9z M1024.9,178.2v-48.5c0-6.4-1.2-12.8-3.7-18.7
	c-4.9-11.6-14.1-20.8-25.7-25.7c-5.9-2.5-12.3-3.8-18.7-3.7c-19.5-0.1-37.1,11.5-44.7,29.4c-2.5,5.9-3.8,12.3-3.7,18.7
	c-0.1,12.9,5,25.2,14.1,34.4c4.4,4.4,9.7,7.9,15.5,10.3c6,2.5,12.4,3.8,18.9,3.7H1024.9z"/>
<path class="st0" d="M1078.9,46V1.8h11.2c17.8,0,32.3,14.4,32.3,32.3l0,0V46H1078.9z M1122.4,56.9v159.1h-10
	c-18.5,0-33.5-15-33.5-33.5V56.9H1122.4z"/>
</svg>
