<svg xmlns="http://www.w3.org/2000/svg" viewBox="0 0 2400 640"><g fill-rule="evenodd"><path d="M223.622 289.303c35.362-66.106 70.21-131.244 106.229-198.579 35.74 66.737 70.681 131.981 106.324 198.543l-56.312 21.212c-16.617-30.706-32.823-60.653-49.995-92.381l-49.993 92.41c-18.861-7.113-37.094-13.983-56.253-21.205zM201.977 339.631c19.31 7.271 37.215 14.016 56.275 21.195-12.048 27.788-23.655 54.715-35.404 81.582-4.563 10.437-6.852 24.673-14.913 29.984-8.065 5.316-22.05 1.77-33.442 1.883-13.757.135-27.515.03-43.287.03 23.873-45.422 47.017-89.466 70.771-134.674zM401.414 360.787l49.298-21.065 70.797 134.559c-23.334 0-44.548.311-65.733-.361-2.902-.093-6.814-4.559-8.293-7.873-15.381-34.51-30.359-69.198-46.069-105.26z"/><path fill="#020202" d="M322.443 0C144.363 0 0 144.364 0 322.447 0 500.529 144.364 644.89 322.443 644.89c178.082 0 322.446-144.361 322.446-322.443C644.889 144.364 500.525 0 322.443 0zm0 607.239c-157.287 0-284.792-127.505-284.792-284.792 0-157.29 127.505-284.796 284.792-284.796 157.288 0 284.794 127.506 284.794 284.796.001 157.287-127.506 284.792-284.794 284.792z"/></g><text x="719.271" y="427.212" font-family="sans-serif" font-weight="400" letter-spacing="0" style="line-height:0%;-inkscape-font-specification:'sans-serif, Normal';text-align:start" word-spacing="0"><tspan x="719.271" y="427.212" font-family="Titillium Web" font-size="366.667" font-weight="700" style="line-height:125%;-inkscape-font-specification:'Titillium Web Bold';text-align:start">AWECODE</tspan></text></svg>