<?xml version="1.0" encoding="UTF-8" standalone="no"?>
<!-- Created with Inkscape (http://www.inkscape.org/) -->

<svg
   xmlns:dc="http://purl.org/dc/elements/1.1/"
   xmlns:cc="http://creativecommons.org/ns#"
   xmlns:rdf="http://www.w3.org/1999/02/22-rdf-syntax-ns#"
   xmlns:svg="http://www.w3.org/2000/svg"
   xmlns="http://www.w3.org/2000/svg"
   xmlns:sodipodi="http://sodipodi.sourceforge.net/DTD/sodipodi-0.dtd"
   xmlns:inkscape="http://www.inkscape.org/namespaces/inkscape"
   version="1.1"
   id="svg2"
   xml:space="preserve"
   width="583.06708"
   height="114.72335"
   viewBox="0 0 583.06708 114.72335"
   sodipodi:docname="edusanjal.svg"
   inkscape:version="0.92.4 5da689c313, 2019-01-14"><metadata
     id="metadata8"><rdf:RDF><cc:Work
         rdf:about=""><dc:format>image/svg+xml</dc:format><dc:type
           rdf:resource="http://purl.org/dc/dcmitype/StillImage" /><dc:title></dc:title></cc:Work></rdf:RDF></metadata><defs
     id="defs6"><clipPath
       clipPathUnits="userSpaceOnUse"
       id="clipPath28"><path
         d="M 0,0 H 431.07 V 87 H 0 Z"
         id="path26"
         inkscape:connector-curvature="0" /></clipPath><clipPath
       clipPathUnits="userSpaceOnUse"
       id="clipPath36"><path
         d="M 0,0 H 438 V 87 H 0 Z"
         id="path34"
         inkscape:connector-curvature="0" /></clipPath><clipPath
       clipPathUnits="userSpaceOnUse"
       id="clipPath40"><path
         d="m 51.941,65.273 h 7.738 v 8.133 h -7.738 z"
         id="path38"
         inkscape:connector-curvature="0" /></clipPath><clipPath
       clipPathUnits="userSpaceOnUse"
       id="clipPath44"><path
         d="M 0,0 H 438 V 87 H 0 Z"
         id="path42"
         inkscape:connector-curvature="0" /></clipPath><clipPath
       clipPathUnits="userSpaceOnUse"
       id="clipPath48"><path
         d="m 51.594,58.926 h 8.27 v 10.492 h -8.27 z"
         id="path46"
         inkscape:connector-curvature="0" /></clipPath><clipPath
       clipPathUnits="userSpaceOnUse"
       id="clipPath52"><path
         d="M 0,0 H 438 V 87 H 0 Z"
         id="path50"
         inkscape:connector-curvature="0" /></clipPath><clipPath
       clipPathUnits="userSpaceOnUse"
       id="clipPath56"><path
         d="m 52.086,71.68 h 8 v 6.945 h -8 z"
         id="path54"
         inkscape:connector-curvature="0" /></clipPath><clipPath
       clipPathUnits="userSpaceOnUse"
       id="clipPath60"><path
         d="M 0,0 H 438 V 87 H 0 Z"
         id="path58"
         inkscape:connector-curvature="0" /></clipPath><clipPath
       clipPathUnits="userSpaceOnUse"
       id="clipPath64"><path
         d="m 119.129,7.758 h 2.426 v 21.23 h -2.426 z"
         id="path62"
         inkscape:connector-curvature="0" /></clipPath><clipPath
       clipPathUnits="userSpaceOnUse"
       id="clipPath68"><path
         d="M 0,0 H 438 V 87 H 0 Z"
         id="path66"
         inkscape:connector-curvature="0" /></clipPath><clipPath
       clipPathUnits="userSpaceOnUse"
       id="clipPath72"><path
         d="m 96,24.844 h 11.074 v 25.68 H 96 Z"
         id="path70"
         inkscape:connector-curvature="0" /></clipPath><clipPath
       clipPathUnits="userSpaceOnUse"
       id="clipPath76"><path
         d="M 0,0 H 438 V 87 H 0 Z"
         id="path74"
         inkscape:connector-curvature="0" /></clipPath><clipPath
       clipPathUnits="userSpaceOnUse"
       id="clipPath80"><path
         d="m 29.938,18.57 h 70.855 V 50.09 H 29.938 Z"
         id="path78"
         inkscape:connector-curvature="0" /></clipPath><clipPath
       clipPathUnits="userSpaceOnUse"
       id="clipPath84"><path
         d="M 0,0 H 438 V 87 H 0 Z"
         id="path82"
         inkscape:connector-curvature="0" /></clipPath></defs><sodipodi:namedview
     pagecolor="#ffffff"
     bordercolor="#666666"
     borderopacity="1"
     objecttolerance="10"
     gridtolerance="10"
     guidetolerance="10"
     inkscape:pageopacity="0"
     inkscape:pageshadow="2"
     inkscape:window-width="1920"
     inkscape:window-height="1018"
     id="namedview4"
     showgrid="false"
     inkscape:zoom="0.62943015"
     inkscape:cx="291.53354"
     inkscape:cy="57.361675"
     inkscape:window-x="0"
     inkscape:window-y="27"
     inkscape:window-maximized="1"
     inkscape:current-layer="g10" /><g
     id="g10"
     inkscape:groupmode="layer"
     inkscape:label="edusanjal-new"
     transform="matrix(1.3333333,0,0,1.3333333,0,4.8680837e-6)"><g
       id="g12"><text
         transform="translate(142.98933,71.764842)"
         style="font-variant:normal;font-weight:normal;font-size:66.15529633px;font-family:'Bitstream Vera Sans';-inkscape-font-specification:BitstreamVeraSans-Roman;writing-mode:lr-tb;fill:#682b8c;fill-opacity:1;fill-rule:nonzero;stroke:none"
         id="text16"><tspan
           x="0 35.45924 74.953949"
           y="0"
           sodipodi:role="line"
           id="tspan14">edu</tspan></text>
<text
         transform="translate(254.3287,71.764842)"
         style="font-variant:normal;font-weight:bold;font-size:66.15529633px;font-family:'Bitstream Vera Sans';-inkscape-font-specification:BitstreamVeraSans-Bold;writing-mode:lr-tb;fill:#482466;fill-opacity:1;fill-rule:nonzero;stroke:none"
         id="text20"><tspan
           x="0 31.092989 70.91848 108.95777 125.76122 165.5867"
           y="0"
           sodipodi:role="line"
           id="tspan18">sanjal</tspan></text>
</g><g
       id="g22"><g
         id="g24"
         clip-path="url(#clipPath28)"><g
           id="g30"><g
             id="g32" /><g
             id="g192"><g
               clip-path="url(#clipPath36)"
               id="g190"><g
                 id="g86" /><g
                 id="g102"><g
                   clip-path="url(#clipPath40)"
                   id="g100"><g
                     id="g98"><g
                       id="g88" /><g
                       id="g96"><g
                         clip-path="url(#clipPath44)"
                         id="g94"
                         style="opacity:0.22000098"><g
                           id="g92"><path
                             d="m 51.941,68.691 0.153,4.715 7.586,-3.242 -0.184,-4.891 z"
                             style="fill:#100f0d;fill-opacity:1;fill-rule:nonzero;stroke:none"
                             id="path90"
                             inkscape:connector-curvature="0" /></g></g></g></g></g></g><g
                 id="g118"><g
                   clip-path="url(#clipPath48)"
                   id="g116"><g
                     id="g114"><g
                       id="g104" /><g
                       id="g112"><g
                         clip-path="url(#clipPath52)"
                         id="g110"
                         style="opacity:0.33000201"><g
                           id="g108"><path
                             d="m 51.855,67.07 c 0.012,0.422 1.188,1.383 1.493,1.629 0.933,0.766 2.183,0.856 3.281,0.567 0.559,-0.149 1.105,-0.379 1.617,-0.653 0.211,-0.113 1.629,-0.82 1.617,-1.093 0,0 -0.09,-2.825 -0.09,-2.825 l -8.179,-5.769 c 0,0 0.261,8.129 0.261,8.144"
                             style="fill:#100f0d;fill-opacity:1;fill-rule:nonzero;stroke:none"
                             id="path106"
                             inkscape:connector-curvature="0" /></g></g></g></g></g></g><g
                 id="g134"><g
                   clip-path="url(#clipPath56)"
                   id="g132"><g
                     id="g130"><g
                       id="g120" /><g
                       id="g128"><g
                         clip-path="url(#clipPath60)"
                         id="g126"
                         style="opacity:0.08999628"><g
                           id="g124"><path
                             d="M 52.227,78.625 60.086,74.363 59.93,71.68 52.086,74.219 Z"
                             style="fill:#100f0d;fill-opacity:1;fill-rule:nonzero;stroke:none"
                             id="path122"
                             inkscape:connector-curvature="0" /></g></g></g></g></g></g><g
                 id="g140"><path
                   d="M 122.305,0.27 2.402,51.012 c -1.914,0.812 -2.886,3.222 -2.16,5.359 0.727,2.133 2.887,3.219 4.805,2.406 L 29.938,48.246 c 0.046,0.199 0.074,0.402 0.14,0.602 l 9.336,27.414 c 1.078,3.168 4.281,4.773 7.121,3.574 l 59.903,-25.352 c 2.839,-1.203 4.281,-4.777 3.207,-7.941 l -9.336,-27.418 c -0.067,-0.199 -0.164,-0.371 -0.25,-0.555 l 24.89,-10.535 c 1.914,-0.812 2.887,-3.223 2.16,-5.355 -0.726,-2.137 -2.886,-3.223 -4.804,-2.41"
                   style="fill:#202e3f;fill-opacity:1;fill-rule:nonzero;stroke:none"
                   id="path136"
                   inkscape:connector-curvature="0" /><path
                   d="m 120.816,46.352 -3.175,-4.875 -3.7,4.39 2.18,-38.523 c 0.067,-1.141 0.406,-2.051 0.758,-2.028 l 5.594,0.395 c 0.351,0.023 0.586,0.977 0.523,2.117 z"
                   style="fill:#863da3;fill-opacity:1;fill-rule:nonzero;stroke:none"
                   id="path138"
                   inkscape:connector-curvature="0" /></g><g
                 id="g156"><g
                   clip-path="url(#clipPath64)"
                   id="g154"><g
                     id="g152"><g
                       id="g142" /><g
                       id="g150"><g
                         clip-path="url(#clipPath68)"
                         id="g148"
                         style="opacity:0.13999903"><g
                           id="g146"><path
                             d="m 120.078,28.984 -0.676,-0.046 c -0.16,-0.012 -0.285,-0.168 -0.273,-0.348 l 1.16,-20.528 c 0.012,-0.179 0.152,-0.316 0.313,-0.304 l 0.675,0.047 c 0.161,0.011 0.285,0.168 0.274,0.347 l -1.16,20.528 c -0.012,0.179 -0.149,0.316 -0.313,0.304"
                             style="fill:#ffffff;fill-opacity:1;fill-rule:nonzero;stroke:none"
                             id="path144"
                             inkscape:connector-curvature="0" /></g></g></g></g></g></g><g
                 id="g172"><g
                   clip-path="url(#clipPath72)"
                   id="g170"><g
                     id="g168"><g
                       id="g158" /><g
                       id="g166"><g
                         clip-path="url(#clipPath76)"
                         id="g164"
                         style="opacity:0.08999628"><g
                           id="g162"><path
                             d="m 106.062,50.215 -0.457,0.195 c -0.804,0.34 -1.71,-0.113 -2.019,-1.012 L 96.102,27.402 c -0.309,-0.898 0.101,-1.91 0.906,-2.25 l 0.457,-0.195 c 0.805,-0.34 1.715,0.113 2.019,1.012 l 7.489,21.996 c 0.304,0.898 -0.106,1.91 -0.911,2.25"
                             style="fill:#ffffff;fill-opacity:1;fill-rule:nonzero;stroke:none"
                             id="path160"
                             inkscape:connector-curvature="0" /></g></g></g></g></g></g><g
                 id="g188"><g
                   clip-path="url(#clipPath80)"
                   id="g186"><g
                     id="g184"><g
                       id="g174" /><g
                       id="g182"><g
                         clip-path="url(#clipPath84)"
                         id="g180"
                         style="opacity:0.22000098"><g
                           id="g178"><path
                             d="M 29.938,48.246 100.059,18.57 100.793,20.543 30.504,50.09 Z"
                             style="fill:#100f0d;fill-opacity:1;fill-rule:nonzero;stroke:none"
                             id="path176"
                             inkscape:connector-curvature="0" /></g></g></g></g></g></g></g></g></g></g></g></g></svg>